<?xml version="1.0" encoding="UTF-8"?>
<!DOCTYPE svg PUBLIC "-//W3C//DTD SVG 1.1//EN" "http://www.w3.org/Graphics/SVG/1.1/DTD/svg11.dtd">
<!-- Creator: CorelDRAW 2017 -->
<svg xmlns="http://www.w3.org/2000/svg" xml:space="preserve" width="297mm" height="210mm" version="1.1" style="shape-rendering:geometricPrecision; text-rendering:geometricPrecision; image-rendering:optimizeQuality; fill-rule:evenodd; clip-rule:evenodd"
viewBox="0 0 29700 21000"
 xmlns:xlink="http://www.w3.org/1999/xlink">
 <defs>
  <style type="text/css">
   <![CDATA[
    .str1 {stroke:#373435;stroke-width:60.92}
    .str0 {stroke:#373435;stroke-width:60.92}
    .str2 {stroke:#373435;stroke-width:60.93}
    .fil1 {fill:#A8CF45}
    .fil0 {fill:#373435;fill-rule:nonzero}
   ]]>
  </style>
 </defs>
 <g id="Layer_x0020_1">
  <metadata id="CorelCorpID_0Corel-Layer"/>
  <path class="fil0" d="M5508 12141l-240 0c-18,0 -34,7 -45,19 -12,12 -19,28 -19,45 0,18 7,34 19,45 12,12 28,19 45,19 159,2 321,2 480,0 18,0 34,-7 45,-19 12,-12 19,-28 19,-45 0,-18 -7,-34 -19,-45 -12,-12 -28,-19 -45,-19l-240 0zm0 2121l-761 0c-15,0 -30,-4 -43,-10 -19,-9 -35,-24 -47,-42 -12,-18 -18,-40 -18,-62 0,-16 4,-33 11,-50 30,-64 545,-1161 588,-1253l0 -520c-22,-6 -42,-17 -58,-33 -23,-23 -37,-54 -37,-88 0,-34 14,-66 37,-88 23,-23 54,-37 88,-37l480 0c34,0 66,14 88,37 23,23 37,54 37,88 0,34 -14,66 -37,88 -16,16 -36,27 -58,33l0 520c19,40 129,275 249,530 1,2 2,3 2,5 43,91 87,185 129,274 1,1 2,3 2,5 48,103 93,199 129,274 1,1 1,3 2,4 41,87 69,148 76,161 8,17 11,33 11,50 0,23 -7,44 -18,62 -12,18 -28,33 -47,42 -13,6 -28,10 -43,10l-761 0zm-210 -1932l0 522 0 0c0,4 -1,9 -3,13 -2,3 -568,1211 -591,1260 -4,8 -5,16 -5,24 0,11 3,21 9,30 5,9 13,15 22,19 5,3 11,4 17,4l761 0 761 0c6,0 12,-1 17,-4 9,-4 16,-11 22,-19 5,-9 9,-19 9,-30 0,-8 -2,-16 -5,-24 -5,-10 -30,-64 -68,-146l-311 0c-17,0 -30,-14 -30,-30 0,-17 14,-30 30,-30l283 0c-30,-64 -65,-139 -102,-218l-311 0c-17,0 -30,-14 -30,-30 0,-17 14,-30 30,-30l283 0 -102 -218 -311 0c-17,0 -30,-14 -30,-30 0,-17 14,-30 30,-30l283 0c-124,-264 -232,-494 -232,-496 -2,-4 -3,-9 -3,-13l0 0 0 -522c-139,2 -280,2 -419,0z"/>
  <path class="fil1" d="M5178 13115l659 0 115 246 -283 0c-17,0 -30,14 -30,30 0,17 14,30 30,30l311 0 102 218 -283 0c-17,0 -30,14 -30,30 0,17 14,30 30,30l311 0c37,79 72,154 102,218l-283 0c-17,0 -30,14 -30,30 0,17 14,30 30,30l311 0c38,81 64,136 68,146 4,8 5,16 5,24 0,11 -3,21 -9,30 -5,9 -13,15 -22,19 -5,3 -11,4 -17,4l-761 0 -761 0c-6,0 -12,-1 -17,-4 -9,-4 -16,-11 -22,-19 -5,-9 -9,-19 -9,-30 0,-8 2,-16 5,-24 17,-35 306,-653 474,-1010z"/>
  <polygon class="fil0" points="7187,14238 7187,12889 6689,12889 6689,12552 8101,12552 8101,12889 7603,12889 7603,14238 "/>
  <path id="1" class="fil0" d="M8237 14238l0 -1686 408 0 0 710 -55 5c11,-76 35,-139 72,-188 37,-49 84,-86 140,-110 56,-25 118,-37 184,-37 97,0 177,21 241,62 64,41 112,98 145,171 32,73 49,157 49,252l0 821 -408 0 0 -729c0,-84 -13,-148 -38,-192 -25,-44 -69,-66 -131,-66 -63,0 -112,23 -147,68 -35,45 -52,113 -52,203l0 717 -408 0z"/>
  <path id="2" class="fil0" d="M10279 14266c-133,0 -249,-28 -349,-83 -100,-55 -177,-133 -233,-233 -55,-100 -83,-217 -83,-351 0,-135 28,-251 83,-350 55,-99 133,-176 231,-233 99,-56 215,-84 348,-84 133,0 248,28 345,84 97,56 172,137 224,241 52,104 78,229 78,373l0 76 -888 0c5,89 30,155 75,198 45,44 103,65 175,65 54,0 99,-11 135,-32 36,-21 63,-57 78,-106l408 24c-35,133 -108,235 -221,305 -112,70 -249,106 -408,106zm-242 -793l475 0c-3,-84 -26,-147 -69,-189 -43,-42 -98,-63 -166,-63 -65,0 -119,22 -163,66 -44,44 -69,106 -77,185z"/>
  <path id="3" class="fil0" d="M11143 14238l0 -1686 698 0c207,0 370,50 488,151 118,101 177,238 177,412 0,116 -27,216 -80,300 -53,85 -129,150 -229,196 -100,46 -218,69 -356,69l-285 0 0 558 -413 0zm413 -897l256 0c84,0 150,-19 198,-57 48,-38 72,-94 72,-169 0,-73 -24,-129 -71,-167 -47,-39 -114,-58 -199,-58l-256 0 0 451z"/>
  <path id="4" class="fil0" d="M13280 14266c-135,0 -252,-28 -353,-83 -101,-55 -179,-133 -235,-233 -56,-100 -84,-217 -84,-351 0,-135 28,-252 84,-351 56,-100 135,-177 235,-233 101,-55 218,-83 353,-83 135,0 252,28 351,83 100,55 178,133 234,233 56,100 84,217 84,351 0,135 -28,252 -84,351 -56,100 -134,177 -234,233 -100,55 -217,83 -351,83zm0 -302c79,0 140,-32 184,-95 44,-63 65,-154 65,-271 0,-116 -22,-205 -65,-269 -44,-64 -105,-96 -184,-96 -81,0 -143,32 -186,96 -44,64 -65,154 -65,269 0,117 22,207 65,271 44,63 106,95 186,95z"/>
  <path id="5" class="fil0" d="M14151 14238l0 -1277 392 0 14 387 -31 -5c22,-136 59,-234 112,-293 52,-59 125,-89 218,-89l112 0 0 330 -114 0c-68,0 -123,8 -166,24 -43,16 -75,42 -96,77 -21,36 -32,84 -32,146l0 700 -408 0z"/>
  <path id="6" class="fil0" d="M15685 14238c-138,0 -239,-32 -303,-96 -64,-64 -96,-167 -96,-307l0 -1173 408 0 0 1121c0,62 13,104 39,127 26,23 66,34 120,34l176 0 0 294 -344 0zm-610 -983l0 -294 954 0 0 294 -954 0z"/>
  <path id="7" class="fil0" d="M16342 14238l0 -1263c0,-136 37,-241 110,-313 74,-73 186,-109 338,-109l294 0 0 294 -195 0c-49,0 -84,12 -106,36 -21,24 -32,61 -32,112l0 1244 -411 0zm-190 -916l0 -297 916 0 0 297 -916 0z"/>
  <path id="8" class="fil0" d="M17824 14266c-135,0 -252,-28 -353,-83 -101,-55 -179,-133 -235,-233 -56,-100 -84,-217 -84,-351 0,-135 28,-252 84,-351 56,-100 135,-177 235,-233 101,-55 218,-83 353,-83 135,0 252,28 351,83 100,55 178,133 234,233 56,100 84,217 84,351 0,135 -28,252 -84,351 -56,100 -134,177 -234,233 -100,55 -217,83 -351,83zm0 -302c79,0 140,-32 184,-95 44,-63 65,-154 65,-271 0,-116 -22,-205 -65,-269 -44,-64 -105,-96 -184,-96 -81,0 -143,32 -186,96 -44,64 -65,154 -65,269 0,117 22,207 65,271 44,63 106,95 186,95z"/>
  <path id="9" class="fil0" d="M19068 14238c-114,0 -203,-28 -266,-85 -63,-57 -95,-150 -95,-278l0 -1322 408 0 0 1277c0,41 9,70 28,88 19,17 46,26 81,26l78 0 0 294 -235 0z"/>
  <path id="10" class="fil0" d="M19467 14238l0 -1277 408 0 0 1277 -408 0zm-7 -1420l0 -304 423 0 0 304 -423 0z"/>
  <path id="11" class="fil0" d="M20749 14266c-135,0 -252,-28 -353,-83 -101,-55 -179,-133 -235,-233 -56,-100 -84,-217 -84,-351 0,-135 28,-252 84,-351 56,-100 135,-177 235,-233 101,-55 218,-83 353,-83 135,0 252,28 351,83 100,55 178,133 234,233 56,100 84,217 84,351 0,135 -28,252 -84,351 -56,100 -134,177 -234,233 -100,55 -217,83 -351,83zm0 -302c79,0 140,-32 184,-95 44,-63 65,-154 65,-271 0,-116 -22,-205 -65,-269 -44,-64 -105,-96 -184,-96 -81,0 -143,32 -186,96 -44,64 -65,154 -65,269 0,117 22,207 65,271 44,63 106,95 186,95z"/>
  <polygon id="12" class="fil0" points="21661,14238 21661,12552 22074,12552 22074,14141 21841,13901 22829,13901 22829,14238 "/>
  <path id="13" class="fil0" d="M23441 14266c-133,0 -242,-31 -328,-93 -85,-62 -128,-147 -128,-256 0,-112 36,-199 109,-261 73,-62 179,-107 318,-135l396 -81c0,-74 -16,-131 -49,-170 -32,-39 -79,-58 -139,-58 -60,0 -107,15 -141,44 -34,29 -56,71 -65,125l-408 -14c25,-147 91,-256 197,-328 106,-71 245,-107 418,-107 199,0 349,45 448,135 99,90 148,225 148,404l0 404c0,40 7,66 20,78 13,13 32,19 56,19l31 0 0 266c-13,5 -33,9 -62,12 -28,3 -56,5 -83,5 -49,0 -97,-8 -142,-25 -46,-17 -84,-47 -114,-90 -30,-44 -45,-106 -45,-189l31 31c-16,57 -44,107 -84,151 -40,44 -92,77 -156,100 -63,23 -139,34 -228,34zm107 -266c51,0 96,-10 135,-31 40,-21 70,-51 93,-90 22,-40 33,-89 33,-147l0 -52 -247 57c-49,11 -87,28 -115,51 -28,23 -42,53 -42,91 0,38 12,68 36,89 24,21 59,32 107,32z"/>
  <path id="14" class="fil0" d="M25260 14266c-90,0 -167,-19 -231,-56 -64,-37 -114,-90 -151,-158l-7 185 -394 0 0 -1686 408 0 0 591c35,-62 84,-112 148,-152 64,-40 140,-59 227,-59 108,0 201,28 279,83 78,55 139,133 183,233 44,100 65,217 65,351 0,135 -22,252 -65,351 -44,100 -104,177 -183,233 -78,55 -171,83 -279,83zm-128 -302c70,0 126,-32 170,-96 44,-64 65,-154 65,-269 0,-117 -21,-207 -63,-271 -42,-63 -99,-95 -170,-95 -52,0 -97,14 -135,43 -38,28 -66,70 -85,125 -19,55 -28,121 -28,198 0,76 9,141 28,196 19,55 47,97 84,126 37,29 82,44 134,44z"/>
  <circle class="fil1 str0" cx="5383" cy="11196" r="202"/>
  <circle class="fil1 str1" cx="5753" cy="11527" r="135"/>
  <circle class="fil1 str2" cx="5444" cy="11843" r="91"/>
 </g>
</svg>
