<?xml version="1.0" encoding="UTF-8"?>
<!DOCTYPE svg PUBLIC "-//W3C//DTD SVG 1.1//EN" "http://www.w3.org/Graphics/SVG/1.1/DTD/svg11.dtd">
<!-- Creator: CorelDRAW 2017 -->
<svg xmlns="http://www.w3.org/2000/svg" xml:space="preserve" width="33.866mm" height="5.309mm" version="1.1" shape-rendering="geometricPrecision" text-rendering="geometricPrecision" image-rendering="optimizeQuality" fill-rule="evenodd" clip-rule="evenodd"
viewBox="0 0 3387 531"
 xmlns:xlink="http://www.w3.org/1999/xlink">
 <g id="Layer_x0020_1">
  <metadata id="CorelCorpID_0Corel-Layer"/>
  <path fill="#373435" fill-rule="nonzero" d="M139 188l-38 0c-3,0 -5,1 -7,3 -2,2 -3,4 -3,7 0,3 1,5 3,7 2,2 4,3 7,3 25,0 51,0 77,0 3,0 5,-1 7,-3 2,-2 3,-4 3,-7 0,-3 -1,-5 -3,-7 -2,-2 -4,-3 -7,-3l-38 0zm0 340l-122 0c-2,0 -5,-1 -7,-2 -3,-1 -6,-4 -8,-7 -2,-3 -3,-6 -3,-10 0,-3 1,-5 2,-8 5,-10 87,-186 94,-201l0 -83c-4,-1 -7,-3 -9,-5 -4,-4 -6,-9 -6,-14 0,-6 2,-11 6,-14 4,-4 9,-6 14,-6l77 0c6,0 11,2 14,6 4,4 6,9 6,14 0,6 -2,11 -6,14 -3,3 -6,4 -9,5l0 83c3,6 21,44 40,85 0,0 0,1 0,1 7,15 14,30 21,44 0,0 0,0 0,1 8,16 15,32 21,44 0,0 0,0 0,1 7,14 11,24 12,26 1,3 2,5 2,8 0,4 -1,7 -3,10 -2,3 -4,5 -8,7 -2,1 -5,2 -7,2l-122 0zm-34 -309l0 84 0 0c0,1 0,1 0,2 0,1 -91,194 -95,202 -1,1 -1,3 -1,4 0,2 1,3 1,5 1,1 2,2 3,3 1,0 2,1 3,1l122 0 122 0c1,0 2,0 3,-1 1,-1 3,-2 3,-3 1,-1 1,-3 1,-5 0,-1 0,-3 -1,-4 -1,-2 -5,-10 -11,-23l-50 0c-3,0 -5,-2 -5,-5 0,-3 2,-5 5,-5l45 0c-5,-10 -10,-22 -16,-35l-50 0c-3,0 -5,-2 -5,-5 0,-3 2,-5 5,-5l45 0 -16 -35 -50 0c-3,0 -5,-2 -5,-5 0,-3 2,-5 5,-5l45 0c-20,-42 -37,-79 -37,-79 0,-1 0,-1 0,-2l0 0 0 -84c-22,0 -45,0 -67,0z"/>
  <path fill="#A8CF45" d="M86 344l106 0 18 39 -45 0c-3,0 -5,2 -5,5 0,3 2,5 5,5l50 0 16 35 -45 0c-3,0 -5,2 -5,5 0,3 2,5 5,5l50 0c6,13 12,25 16,35l-45 0c-3,0 -5,2 -5,5 0,3 2,5 5,5l50 0c6,13 10,22 11,23 1,1 1,3 1,4 0,2 -1,3 -1,5 -1,1 -2,2 -3,3 -1,0 -2,1 -3,1l-122 0 -122 0c-1,0 -2,0 -3,-1 -1,-1 -3,-2 -3,-3 -1,-1 -1,-3 -1,-5 0,-1 0,-3 1,-4 3,-6 49,-105 76,-162z"/>
  <polygon fill="#373435" fill-rule="nonzero" points="408,524 408,308 328,308 328,254 555,254 555,308 475,308 475,524 "/>
  <path id="1" fill="#373435" fill-rule="nonzero" d="M576 524l0 -270 65 0 0 114 -9 1c2,-12 6,-22 12,-30 6,-8 13,-14 22,-18 9,-4 19,-6 29,-6 15,0 28,3 39,10 10,7 18,16 23,27 5,12 8,25 8,40l0 132 -65 0 0 -117c0,-13 -2,-24 -6,-31 -4,-7 -11,-11 -21,-11 -10,0 -18,4 -24,11 -6,7 -8,18 -8,32l0 115 -65 0z"/>
  <path id="2" fill="#373435" fill-rule="nonzero" d="M903 528c-21,0 -40,-4 -56,-13 -16,-9 -28,-21 -37,-37 -9,-16 -13,-35 -13,-56 0,-22 4,-40 13,-56 9,-16 21,-28 37,-37 16,-9 34,-13 56,-13 21,0 40,4 55,13 16,9 28,22 36,39 8,17 13,37 13,60l0 12 -142 0c1,14 5,25 12,32 7,7 17,10 28,10 9,0 16,-2 22,-5 6,-3 10,-9 13,-17l65 4c-6,21 -17,38 -35,49 -18,11 -40,17 -65,17zm-39 -127l76 0c-1,-13 -4,-24 -11,-30 -7,-7 -16,-10 -27,-10 -10,0 -19,4 -26,11 -7,7 -11,17 -12,30z"/>
  <path id="3" fill="#373435" fill-rule="nonzero" d="M1042 524l0 -270 112 0c33,0 59,8 78,24 19,16 28,38 28,66 0,19 -4,35 -13,48 -9,14 -21,24 -37,31 -16,7 -35,11 -57,11l-46 0 0 89 -66 0zm66 -144l41 0c13,0 24,-3 32,-9 8,-6 12,-15 12,-27 0,-12 -4,-21 -11,-27 -8,-6 -18,-9 -32,-9l-41 0 0 72z"/>
  <path id="4" fill="#373435" fill-rule="nonzero" d="M1384 528c-22,0 -40,-4 -56,-13 -16,-9 -29,-21 -38,-37 -9,-16 -13,-35 -13,-56 0,-22 5,-40 13,-56 9,-16 22,-28 38,-37 16,-9 35,-13 56,-13 22,0 40,4 56,13 16,9 28,21 37,37 9,16 13,35 13,56 0,22 -5,40 -13,56 -9,16 -21,28 -37,37 -16,9 -35,13 -56,13zm0 -48c13,0 22,-5 29,-15 7,-10 10,-25 10,-43 0,-19 -3,-33 -10,-43 -7,-10 -17,-15 -29,-15 -13,0 -23,5 -30,15 -7,10 -10,25 -10,43 0,19 3,33 10,43 7,10 17,15 30,15z"/>
  <path id="5" fill="#373435" fill-rule="nonzero" d="M1523 524l0 -205 63 0 2 62 -5 -1c4,-22 10,-37 18,-47 8,-10 20,-14 35,-14l18 0 0 53 -18 0c-11,0 -20,1 -27,4 -7,3 -12,7 -15,12 -3,6 -5,14 -5,23l0 112 -65 0z"/>
  <path id="6" fill="#373435" fill-rule="nonzero" d="M1769 524c-22,0 -38,-5 -48,-15 -10,-10 -15,-27 -15,-49l0 -188 65 0 0 179c0,10 2,17 6,20 4,4 11,6 19,6l28 0 0 47 -55 0zm-98 -157l0 -47 153 0 0 47 -153 0z"/>
  <path id="7" fill="#373435" fill-rule="nonzero" d="M1874 524l0 -202c0,-22 6,-39 18,-50 12,-12 30,-17 54,-17l47 0 0 47 -31 0c-8,0 -14,2 -17,6 -3,4 -5,10 -5,18l0 199 -66 0zm-30 -147l0 -48 147 0 0 48 -147 0z"/>
  <path id="8" fill="#373435" fill-rule="nonzero" d="M2111 528c-22,0 -40,-4 -56,-13 -16,-9 -29,-21 -38,-37 -9,-16 -13,-35 -13,-56 0,-22 5,-40 13,-56 9,-16 22,-28 38,-37 16,-9 35,-13 56,-13 22,0 40,4 56,13 16,9 28,21 37,37 9,16 13,35 13,56 0,22 -5,40 -13,56 -9,16 -21,28 -37,37 -16,9 -35,13 -56,13zm0 -48c13,0 22,-5 29,-15 7,-10 10,-25 10,-43 0,-19 -3,-33 -10,-43 -7,-10 -17,-15 -29,-15 -13,0 -23,5 -30,15 -7,10 -10,25 -10,43 0,19 3,33 10,43 7,10 17,15 30,15z"/>
  <path id="9" fill="#373435" fill-rule="nonzero" d="M2311 524c-18,0 -32,-5 -43,-14 -10,-9 -15,-24 -15,-44l0 -212 65 0 0 205c0,7 2,11 5,14 3,3 7,4 13,4l13 0 0 47 -38 0z"/>
  <path id="10" fill="#373435" fill-rule="nonzero" d="M2375 524l0 -205 65 0 0 205 -65 0zm-1 -227l0 -49 68 0 0 49 -68 0z"/>
  <path id="11" fill="#373435" fill-rule="nonzero" d="M2580 528c-22,0 -40,-4 -56,-13 -16,-9 -29,-21 -38,-37 -9,-16 -13,-35 -13,-56 0,-22 5,-40 13,-56 9,-16 22,-28 38,-37 16,-9 35,-13 56,-13 22,0 40,4 56,13 16,9 28,21 37,37 9,16 13,35 13,56 0,22 -4,40 -13,56 -9,16 -21,28 -37,37 -16,9 -35,13 -56,13zm0 -48c13,0 22,-5 29,-15 7,-10 10,-25 10,-43 0,-19 -3,-33 -10,-43 -7,-10 -17,-15 -29,-15 -13,0 -23,5 -30,15 -7,10 -10,25 -10,43 0,19 3,33 10,43 7,10 17,15 30,15z"/>
  <polygon id="12" fill="#373435" fill-rule="nonzero" points="2726,524 2726,254 2792,254 2792,508 2755,470 2913,470 2913,524 "/>
  <path id="13" fill="#373435" fill-rule="nonzero" d="M3011 528c-21,0 -39,-5 -52,-15 -14,-10 -21,-24 -21,-41 0,-18 6,-32 17,-42 12,-10 29,-17 51,-22l63 -13c0,-12 -3,-21 -8,-27 -5,-6 -13,-9 -22,-9 -10,0 -17,2 -23,7 -5,5 -9,11 -10,20l-65 -2c4,-24 15,-41 32,-52 17,-11 39,-17 67,-17 32,0 56,7 72,22 16,14 24,36 24,65l0 65c0,6 1,11 3,13 2,2 5,3 9,3l5 0 0 43c-2,1 -5,1 -10,2 -5,1 -9,1 -13,1 -8,0 -15,-1 -23,-4 -7,-3 -13,-7 -18,-14 -5,-7 -7,-17 -7,-30l5 5c-3,9 -7,17 -14,24 -6,7 -15,12 -25,16 -10,4 -22,6 -37,6zm17 -43c8,0 15,-2 22,-5 6,-3 11,-8 15,-14 4,-6 5,-14 5,-24l0 -8 -40 9c-8,2 -14,5 -18,8 -4,4 -7,9 -7,15 0,6 2,11 6,14 4,3 10,5 17,5z"/>
  <path id="14" fill="#373435" fill-rule="nonzero" d="M3302 528c-14,0 -27,-3 -37,-9 -10,-6 -18,-14 -24,-25l-1 30 -63 0 0 -270 65 0 0 95c6,-10 14,-18 24,-24 10,-6 22,-10 36,-10 17,0 32,4 45,13 13,9 22,21 29,37 7,16 10,35 10,56 0,22 -3,40 -10,56 -7,16 -17,28 -29,37 -13,9 -27,13 -45,13zm-21 -48c11,0 20,-5 27,-15 7,-10 10,-25 10,-43 0,-19 -3,-33 -10,-43 -7,-10 -16,-15 -27,-15 -8,0 -16,2 -22,7 -6,5 -11,11 -14,20 -3,9 -5,19 -5,32 0,12 2,23 5,31 3,9 8,15 13,20 6,5 13,7 21,7z"/>
  <path fill="#A8CF45" d="M137 2c18,0 32,15 32,32 0,18 -15,32 -32,32 -18,0 -32,-15 -32,-32 0,-18 15,-32 32,-32z"/>
  <path fill="#373435" fill-rule="nonzero" d="M137 -2c10,0 20,4 26,11 7,7 11,16 11,26 0,10 -4,20 -11,26 -7,7 -16,11 -26,11 -10,0 -20,-4 -26,-11 -7,-7 -11,-16 -11,-26 0,-10 4,-20 11,-26 7,-7 16,-11 26,-11zm19 18c-5,-5 -12,-8 -19,-8 -8,0 -14,3 -19,8 -5,5 -8,12 -8,19 0,8 3,14 8,19 5,5 12,8 19,8 8,0 14,-3 19,-8 5,-5 8,-12 8,-19 0,-8 -3,-14 -8,-19z"/>
  <path fill="#A8CF45" d="M203 66c12,0 22,10 22,22 0,12 -10,22 -22,22 -12,0 -22,-10 -22,-22 0,-12 10,-22 22,-22z"/>
  <path fill="#373435" fill-rule="nonzero" d="M203 61c7,0 14,3 19,8 5,5 8,11 8,19 0,7 -3,14 -8,19 -5,5 -11,8 -19,8 -7,0 -14,-3 -19,-8 -5,-5 -8,-11 -8,-19 0,-7 3,-14 8,-19 5,-5 11,-8 19,-8zm12 15c-3,-3 -7,-5 -12,-5 -5,0 -9,2 -12,5 -3,3 -5,7 -5,12 0,5 2,9 5,12 3,3 7,5 12,5 5,0 9,-2 12,-5 3,-3 5,-7 5,-12 0,-5 -2,-9 -5,-12z"/>
  <path fill="#A8CF45" d="M141 135c8,0 15,7 15,15 0,8 -7,15 -15,15 -8,0 -15,-7 -15,-15 0,-8 7,-15 15,-15z"/>
  <path fill="#373435" fill-rule="nonzero" d="M141 130c5,0 10,2 14,6 4,4 6,8 6,14 0,5 -2,10 -6,14 -4,4 -8,6 -14,6 -5,0 -10,-2 -14,-6 -4,-4 -6,-8 -6,-14 0,-5 2,-10 6,-14 4,-4 8,-6 14,-6zm7 13c-2,-2 -4,-3 -7,-3 -3,0 -5,1 -7,3 -2,2 -3,4 -3,7 0,3 1,5 3,7 2,2 4,3 7,3 3,0 5,-1 7,-3 2,-2 3,-4 3,-7 0,-3 -1,-5 -3,-7z"/>
 </g>
</svg>
